<svg width="48" height="60" viewBox="0 0 48 60" fill="none" xmlns="http://www.w3.org/2000/svg">
<path d="M40.625 15.2835L7.376 15.28L7.375 32.7165L40.6235 32.72L40.625 15.2835ZM39.8735 31.97L8.125 31.9665L8.126 16.03L39.875 16.0335L39.8735 31.97Z" fill="black"/>
<path d="M11.52 28.5745C11.903 28.9575 12.113 29.467 12.1125 30.0085L12.112 30.384L35.8855 30.386L35.886 30.0115C35.887 28.893 36.797 27.983 37.9165 27.983H38.2915L38.2925 20.0195H37.9175C37.375 20.0195 36.865 19.8085 36.4815 19.4255C36.0985 19.0425 35.8875 18.533 35.888 17.9905V17.6155L12.113 17.6125V17.9875C12.1135 18.5295 11.9025 19.0395 11.519 19.423C11.1355 19.8065 10.626 20.0175 10.084 20.0175H9.709V27.98H10.084C10.627 27.98 11.1365 28.191 11.52 28.5745ZM10.4595 20.7425C11.06 20.662 11.6145 20.3885 12.05 19.9535C12.486 19.5175 12.759 18.963 12.839 18.3625L35.163 18.3655C35.243 18.966 35.516 19.5205 35.9515 19.956C36.387 20.3915 36.9415 20.6645 37.5425 20.745L37.5415 27.258C36.309 27.4245 35.3295 28.403 35.1615 29.636L12.838 29.634C12.758 29.034 12.4855 28.4795 12.0505 28.0445C11.615 27.6085 11.0605 27.3355 10.46 27.2545L10.4595 20.7425Z" fill="black"/>
<path d="M16.7375 29.083C16.8055 29.083 16.8735 29.0755 16.9415 29.06C17.431 28.947 17.738 28.4565 17.626 27.9675C17.604 27.8705 17.563 27.7825 17.5125 27.701L19.477 24.8475C19.534 24.8585 19.5895 24.877 19.6495 24.877C19.7175 24.877 19.786 24.869 19.8535 24.854C19.8595 24.853 19.864 24.85 19.87 24.8485L21.985 27.6645C21.8785 27.86 21.8435 28.084 21.8935 28.3035C21.989 28.7205 22.3545 29.012 22.782 29.012C22.8505 29.012 22.919 29.004 22.986 28.989C23.476 28.877 23.7835 28.387 23.6715 27.896C23.633 27.729 23.5465 27.584 23.4325 27.468L25.4385 22.3675C25.4975 22.3655 25.557 22.3605 25.6155 22.347C25.654 22.338 25.689 22.323 25.725 22.31L27.993 24.517C27.94 24.6745 27.9285 24.8435 27.9665 25.01C28.062 25.427 28.4275 25.7185 28.8555 25.7185C28.9235 25.7185 28.992 25.7105 29.059 25.6955C29.2965 25.6415 29.4985 25.4975 29.628 25.291C29.7575 25.0845 29.799 24.84 29.7445 24.6025C29.7125 24.4635 29.646 24.341 29.5595 24.2365L31.277 20.7405C31.3405 20.7395 31.404 20.733 31.467 20.719C31.957 20.606 32.2645 20.1155 32.1525 19.6265C32.042 19.1425 31.548 18.828 31.0595 18.9405C30.57 19.053 30.2625 19.543 30.374 20.033C30.4095 20.1895 30.4925 20.319 30.593 20.4315L28.8895 23.9C28.8105 23.8965 28.7315 23.8995 28.6515 23.9175C28.6 23.9295 28.551 23.947 28.503 23.967L26.262 21.786C26.3255 21.622 26.3425 21.4385 26.3005 21.2545C26.1895 20.771 25.6945 20.4575 25.2075 20.569C24.718 20.6815 24.41 21.1715 24.522 21.662C24.559 21.8225 24.6445 21.9555 24.7495 22.0695L22.7355 27.1915C22.6845 27.194 22.633 27.199 22.582 27.2105L20.4565 24.38C20.5515 24.1955 20.5885 23.9795 20.539 23.762C20.4285 23.2775 19.9265 22.9665 19.447 23.076C19.209 23.13 19.007 23.274 18.8775 23.4805C18.748 23.687 18.7065 23.9315 18.761 24.1685C18.782 24.2585 18.82 24.3395 18.864 24.4165L16.8965 27.275C16.779 27.2535 16.656 27.254 16.5335 27.2825C16.0435 27.395 15.7365 27.8855 15.849 28.3755C15.944 28.7915 16.3095 29.083 16.7375 29.083ZM31.116 19.811C31.126 19.7455 31.167 19.6855 31.263 19.6665C31.3375 19.6665 31.404 19.719 31.4205 19.7925C31.4335 19.8485 31.4085 19.8975 31.3705 19.9355C31.3495 19.9565 31.33 19.9795 31.299 19.9865C31.211 20.0085 31.1235 19.9495 31.1045 19.865C31.1005 19.846 31.1135 19.83 31.116 19.811ZM28.7175 24.7195C28.731 24.6985 28.7615 24.6605 28.8555 24.6435C28.93 24.6435 28.9965 24.6965 29.013 24.769C29.026 24.826 29.0055 24.87 28.992 24.8915C28.979 24.9125 28.948 24.9505 28.8915 24.963C28.806 24.9835 28.716 24.926 28.697 24.841C28.684 24.785 28.7045 24.7405 28.7175 24.7195ZM25.4115 21.295C25.486 21.295 25.5525 21.348 25.569 21.421C25.589 21.508 25.5345 21.5955 25.448 21.615C25.3615 21.635 25.272 21.578 25.253 21.4935C25.233 21.4065 25.288 21.319 25.4115 21.295ZM22.6455 28.0125C22.6585 27.9915 22.6895 27.954 22.7825 27.9365C22.857 27.9365 22.924 27.99 22.9405 28.0625C22.9605 28.1495 22.906 28.2365 22.8185 28.2565C22.73 28.2765 22.644 28.219 22.6245 28.135C22.6115 28.078 22.632 28.034 22.6455 28.0125ZM19.512 23.878C19.525 23.857 19.556 23.8195 19.65 23.802C19.724 23.802 19.79 23.8545 19.8065 23.9275C19.8265 24.015 19.772 24.1025 19.685 24.1225C19.5975 24.141 19.51 24.0855 19.491 24C19.4785 23.9435 19.499 23.8995 19.512 23.878ZM16.6105 28.0805C16.6375 28.047 16.6785 28.02 16.737 28.0085C16.8115 28.0085 16.8775 28.0615 16.894 28.134C16.9045 28.179 16.8935 28.2235 16.87 28.259C16.848 28.2925 16.8145 28.319 16.773 28.3285C16.6875 28.349 16.5985 28.2915 16.5785 28.206C16.5685 28.161 16.581 28.117 16.6105 28.0805Z" fill="black"/>
<path d="M15.218 44.226C15.218 43.5735 14.687 43.0425 14.0345 43.0425C13.382 43.0425 12.851 43.5735 12.851 44.226C12.851 44.8785 13.382 45.4095 14.0345 45.4095C14.687 45.4095 15.218 44.8785 15.218 44.226ZM13.2255 44.226C13.2255 43.78 13.5885 43.4175 14.034 43.4175C14.4795 43.4175 14.8425 43.7805 14.8425 44.226C14.8425 44.6715 14.4795 45.0345 14.034 45.0345C13.5885 45.0345 13.2255 44.672 13.2255 44.226Z" fill="black"/>
<path d="M3.102 17.0505L4.176 16.486L5.25 17.0505L5.045 15.854L5.914 15.007L4.713 14.833L4.176 13.745L3.639 14.833L2.438 15.007L3.307 15.854L3.102 17.0505ZM3.244 15.2695L3.888 15.176L4.176 14.5925L4.464 15.176L5.108 15.2695L4.642 15.7235L4.752 16.365L4.176 16.0625L3.6 16.3645L3.71 15.723L3.244 15.2695Z" fill="black"/>
<path d="M13.445 4.755L13.2985 5.609L14.0655 5.206L14.8325 5.609L14.6865 4.755L15.3075 4.15L14.4495 4.0255L14.066 3.2485L13.6825 4.0255L12.8245 4.15L13.445 4.755ZM13.931 4.368L14.0655 4.0955L14.2 4.368L14.501 4.4115L14.2835 4.6235L14.335 4.923L14.066 4.782L13.797 4.923L13.8485 4.6235L13.631 4.4115L13.931 4.368Z" fill="black"/>
<path d="M42.222 33.9695L42.8425 34.5745L42.696 35.429L43.463 35.0255L44.23 35.429L44.0835 34.5745L44.704 33.9695L43.8465 33.8445L43.463 33.068L43.0795 33.8445L42.222 33.9695ZM43.4635 33.915L43.598 34.1875L43.899 34.2315L43.681 34.444L43.7325 34.744L43.4635 34.6025L43.1945 34.744L43.246 34.444L43.028 34.2315L43.329 34.1875L43.4635 33.915Z" fill="black"/>
<path d="M43.4635 6.845L42.967 8.3735H41.36L42.6595 9.318L42.1635 10.8455L43.4635 9.9015L44.7635 10.8455L44.267 9.318L45.5665 8.3735H43.96L43.4635 6.845ZM43.826 9.175L44.05 9.864L43.4635 9.438L42.8765 9.864L43.1005 9.175L42.514 8.7485H43.2395L43.4635 8.059L43.6875 8.7485H44.413L43.826 9.175Z" fill="black"/>
<path d="M39.4855 2.55099C38.833 2.55099 38.302 3.08199 38.302 3.73449C38.302 4.38699 38.833 4.91799 39.4855 4.91799C40.138 4.91799 40.669 4.38699 40.669 3.73449C40.669 3.08199 40.138 2.55099 39.4855 2.55099ZM39.4855 4.54299C39.0395 4.54299 38.677 4.17999 38.677 3.73449C38.677 3.28899 39.04 2.92599 39.4855 2.92599C39.931 2.92599 40.294 3.28899 40.294 3.73449C40.294 4.17999 39.931 4.54299 39.4855 4.54299Z" fill="black"/>
<path d="M43.276 24.473C43.276 25 43.7045 25.4285 44.2315 25.4285C44.7585 25.4285 45.187 25 45.187 24.473C45.187 23.946 44.7585 23.5175 44.2315 23.5175C43.7045 23.5175 43.276 23.9465 43.276 24.473ZM44.2315 23.8925C44.5515 23.8925 44.812 24.153 44.812 24.473C44.812 24.793 44.5515 25.0535 44.2315 25.0535C43.9115 25.0535 43.651 24.793 43.651 24.473C43.651 24.153 43.9115 23.8925 44.2315 23.8925Z" fill="black"/>
<path d="M8.64201 8.55701C8.64201 7.87151 8.08451 7.31451 7.39901 7.31451C6.71351 7.31451 6.15601 7.87201 6.15601 8.55701C6.15601 9.24251 6.71351 9.80001 7.39901 9.80001C8.08451 9.80001 8.64201 9.24251 8.64201 8.55701ZM6.53101 8.55701C6.53101 8.07851 6.92051 7.68951 7.39901 7.68951C7.87751 7.68951 8.26701 8.07851 8.26701 8.55701C8.26701 9.03601 7.87751 9.42501 7.39901 9.42501C6.92051 9.42501 6.53101 9.03601 6.53101 8.55701Z" fill="black"/>
<path d="M11.3935 44.41L11.467 44.0425C11.3055 44.01 11.146 43.974 10.988 43.9345L10.896 44.2985C11.06 44.339 11.226 44.3765 11.3935 44.41Z" fill="black"/>
<path d="M3.8495 36.784C3.7715 36.4735 3.708 36.1555 3.6615 35.839L3.2905 35.894C3.3395 36.2225 3.405 36.5525 3.486 36.875L3.8495 36.784Z" fill="black"/>
<path d="M3.1805 34.406C3.1805 34.571 3.1845 34.7355 3.1925 34.899L3.567 34.881C3.5595 34.7235 3.5555 34.565 3.5555 34.406C3.5555 34.2435 3.5595 34.0805 3.5675 33.9165L3.193 33.898C3.1845 34.068 3.1805 34.2375 3.1805 34.406Z" fill="black"/>
<path d="M4.4985 38.596C4.361 38.305 4.237 38.006 4.1295 37.7055L3.7765 37.832C3.888 38.1435 4.017 38.4545 4.16 38.756L4.4985 38.596Z" fill="black"/>
<path d="M4.631 39.639C4.802 39.924 4.9885 40.204 5.1865 40.4715L5.488 40.2485C5.298 39.991 5.1175 39.721 4.953 39.4465L4.631 39.639Z" fill="black"/>
<path d="M8.1305 43.1495L8.324 42.828C8.0505 42.6635 7.781 42.483 7.523 42.291L7.299 42.592C7.5665 42.7915 7.846 42.979 8.1305 43.1495Z" fill="black"/>
<path d="M9.938 44.0065L10.0645 43.6535C9.7625 43.5455 9.463 43.421 9.1735 43.284L9.013 43.623C9.3135 43.7655 9.625 43.8945 9.938 44.0065Z" fill="black"/>
<path d="M5.82001 41.246C6.04201 41.4925 6.27951 41.7315 6.52651 41.9555L6.77901 41.678C6.54151 41.462 6.31251 41.232 6.09851 40.995L5.82001 41.246Z" fill="black"/>
<path d="M3.748 32.467L3.3805 32.3935C3.347 32.561 3.318 32.728 3.293 32.8955L3.664 32.9505C3.6875 32.7895 3.716 32.628 3.748 32.467Z" fill="black"/>
<path d="M44.851 37.987L44.476 37.979C44.473 38.1425 44.464 38.3045 44.449 38.4655L44.8225 38.4995C44.8375 38.33 44.847 38.159 44.851 37.987Z" fill="black"/>
<path d="M42.782 42.304L43.0625 42.553C43.3115 42.273 43.539 41.972 43.7395 41.6585L43.4235 41.4565C43.2335 41.7535 43.018 42.0385 42.782 42.304Z" fill="black"/>
<path d="M42.2535 43.33L42.0155 43.04C41.7415 43.2645 41.448 43.4685 41.143 43.6465L41.332 43.97C41.6545 43.782 41.9645 43.5665 42.2535 43.33Z" fill="black"/>
<path d="M43.9235 40.519L44.2675 40.6685C44.4165 40.326 44.5385 39.969 44.6315 39.607L44.268 39.5135C44.18 39.8565 44.064 40.1945 43.9235 40.519Z" fill="black"/>
<path d="M39.247 44.7785C39.6115 44.701 39.9735 44.593 40.3225 44.4575L40.187 44.108C39.857 44.236 39.5145 44.338 39.169 44.4115L39.247 44.7785Z" fill="black"/>
<path d="M37.6175 44.9325C37.666 44.9335 37.7145 44.934 37.763 44.934C37.8865 44.934 38.0095 44.931 38.131 44.9245L38.112 44.55C37.9515 44.558 37.7885 44.5615 37.6255 44.5575L37.6175 44.9325Z" fill="black"/>
<path d="M44.419 18.1685H44.044V19.1685H44.419V18.1685Z" fill="black"/>
<path d="M44.419 16.1685H44.044V17.1685H44.419V16.1685Z" fill="black"/>
<path d="M44.419 20.1685H44.044V21.1685H44.419V20.1685Z" fill="black"/>
<path d="M44.419 14.1685H44.044V15.1685H44.419V14.1685Z" fill="black"/>
</svg>
