<svg width="48" height="60" viewBox="0 0 48 60" fill="none" xmlns="http://www.w3.org/2000/svg">
<path d="M24 7.375C14.833 7.375 7.375 14.833 7.375 24C7.375 33.167 14.833 40.625 24 40.625C33.167 40.625 40.625 33.167 40.625 24C40.625 14.833 33.167 7.375 24 7.375ZM39.865 24.375C39.6675 32.8305 32.83 39.6675 24.375 39.8655V38.3835H23.625V39.8655C15.17 39.6675 8.332 32.8305 8.135 24.375H9.6175V23.625H8.135C8.3325 15.1695 15.17 8.3325 23.625 8.1345V9.6165V9.672H24.375V9.6165V8.1345C32.83 8.3325 39.668 15.1695 39.865 23.625H38.3825V24.375H39.865Z" fill="black"/>
<path d="M24.375 21.909V11.374H23.625V21.909C22.6305 22.087 21.8715 22.9545 21.8715 24C21.8715 25.174 22.826 26.1285 24 26.1285C25.0455 26.1285 25.912 25.3695 26.0905 24.375H31.716V23.625H26.0905C25.934 22.7525 25.2475 22.0655 24.375 21.909ZM24 25.3785C23.2395 25.3785 22.6215 24.76 22.6215 24C22.6215 23.24 23.2395 22.6215 24 22.6215C24.7605 22.6215 25.3785 23.24 25.3785 24C25.3785 24.76 24.7605 25.3785 24 25.3785Z" fill="black"/>
<path d="M30.754 17.1835H30.1615V16.0095H31.3515V15.2595H30.1615V14.811H29.4115V15.2595H28.9865C28.7805 15.2595 28.5995 15.294 28.449 15.3625C28.298 15.43 28.174 15.5255 28.077 15.6495C27.9935 15.7585 27.9355 15.8795 27.898 16.024C27.8655 16.155 27.8485 16.303 27.8485 16.4635V16.7295C27.8485 16.8895 27.865 17.0375 27.899 17.1725C27.9355 17.3125 27.9955 17.438 28.0785 17.5445C28.1725 17.666 28.2965 17.762 28.4485 17.831C28.6 17.899 28.781 17.9335 28.9865 17.9335H29.4115V19.1505H28.3205V19.9005H29.4115V20.3495H30.1615V19.9005H30.754C31.311 19.9005 31.685 19.4705 31.685 18.8305V18.2535C31.685 17.6135 31.311 17.1835 30.754 17.1835ZM29.4115 17.1835H28.9865C28.8635 17.1835 28.793 17.1635 28.757 17.1475C28.7185 17.13 28.6895 17.109 28.671 17.085C28.65 17.058 28.6355 17.0255 28.625 16.9875C28.6075 16.9155 28.598 16.829 28.598 16.7295V16.4635C28.598 16.364 28.6075 16.277 28.624 16.2095C28.635 16.167 28.651 16.1335 28.67 16.108C28.6885 16.0845 28.7175 16.0635 28.7565 16.046C28.787 16.0325 28.8565 16.0095 28.9865 16.0095H29.4115V17.1835ZM30.935 18.8305C30.935 19.1505 30.803 19.1505 30.754 19.1505H30.1615V17.9335H30.754C30.8035 17.9335 30.935 17.9335 30.935 18.2535V18.8305Z" fill="black"/>
<path d="M29.7865 13.5535C27.5665 13.5535 25.76 15.3595 25.76 17.5795C25.76 19.7995 27.566 21.606 29.7865 21.606C32.007 21.606 33.8135 19.8 33.8135 17.5795C33.8135 15.36 32.007 13.5535 29.7865 13.5535ZM29.7865 20.856C27.98 20.856 26.51 19.3865 26.51 17.5795C26.51 15.773 27.9795 14.3035 29.7865 14.3035C31.5935 14.3035 33.0635 15.773 33.0635 17.5795C33.0635 19.3865 31.5935 20.856 29.7865 20.856Z" fill="black"/>
<path d="M15.1375 44.246C15.1375 43.5935 14.6065 43.0625 13.954 43.0625C13.3015 43.0625 12.7705 43.5935 12.7705 44.246C12.7705 44.8985 13.3015 45.4295 13.954 45.4295C14.6065 45.4295 15.1375 44.8985 15.1375 44.246ZM13.1455 44.246C13.1455 43.8 13.5085 43.4375 13.954 43.4375C14.3995 43.4375 14.7625 43.8005 14.7625 44.246C14.7625 44.6915 14.3995 45.0545 13.954 45.0545C13.5085 45.0545 13.1455 44.6915 13.1455 44.246Z" fill="black"/>
<path d="M3.022 17.0705L4.0955 16.506L5.1695 17.07L4.965 15.874L5.833 15.027L4.633 14.8525L4.0955 13.765L3.559 14.853L2.3575 15.0275L3.227 15.8745L3.022 17.0705ZM3.164 15.289L3.808 15.1955L4.0955 14.612L4.384 15.1955L5.0275 15.289L4.5615 15.7435L4.6715 16.385L4.0955 16.082L3.52 16.385L3.6305 15.7435L3.164 15.289Z" fill="black"/>
<path d="M14.369 4.04501L13.985 3.26801L13.602 4.04501L12.7445 4.17001L13.365 4.77501L13.2185 5.62901L13.985 5.22601L14.7525 5.62901L14.6065 4.77501L15.227 4.17001L14.369 4.04501ZM14.255 4.94401L13.9855 4.80251L13.717 4.94401L13.768 4.64451L13.5505 4.43201L13.8515 4.38851L13.986 4.11601L14.121 4.38851L14.4225 4.43201L14.204 4.64451L14.255 4.94401Z" fill="black"/>
<path d="M42.142 33.9895L42.7625 34.5945L42.6165 35.4485L43.383 35.0455L44.1495 35.4485L44.0035 34.5945L44.624 33.9895L43.7665 33.8645L43.3825 33.088L42.9985 33.8645L42.142 33.9895ZM43.3835 33.935L43.5185 34.2075L43.8195 34.251L43.602 34.4635L43.653 34.7635L43.384 34.622L43.115 34.7635L43.166 34.4635L42.9485 34.251L43.2495 34.2075L43.3835 33.935Z" fill="black"/>
<path d="M43.3835 6.86499L42.887 8.39349H41.2805L42.58 9.33799L42.084 10.866L43.384 9.92149L44.6835 10.866L44.1875 9.33799L45.487 8.39349H43.8805L43.3835 6.86499ZM43.746 9.19499L43.9695 9.88399L43.383 9.45799L42.796 9.88449L43.0195 9.19499L42.433 8.76849H43.1585L43.3825 8.07899L43.606 8.76849H44.3315L43.746 9.19499Z" fill="black"/>
<path d="M39.4055 4.93801C40.0585 4.93801 40.589 4.40701 40.589 3.75451C40.589 3.10201 40.058 2.57101 39.4055 2.57101C38.753 2.57101 38.222 3.10201 38.222 3.75451C38.222 4.40701 38.7525 4.93801 39.4055 4.93801ZM39.4055 2.94601C39.8515 2.94601 40.214 3.30901 40.214 3.75451C40.214 4.20001 39.851 4.56301 39.4055 4.56301C38.96 4.56301 38.5965 4.20001 38.5965 3.75451C38.5965 3.30901 38.9595 2.94601 39.4055 2.94601Z" fill="black"/>
<path d="M43.196 24.493C43.196 25.02 43.6245 25.4485 44.1515 25.4485C44.6785 25.4485 45.107 25.02 45.107 24.493C45.107 23.966 44.6785 23.5375 44.1515 23.5375C43.6245 23.5375 43.196 23.9665 43.196 24.493ZM44.1515 23.9125C44.472 23.9125 44.732 24.173 44.732 24.493C44.732 24.813 44.4715 25.0735 44.1515 25.0735C43.8315 25.0735 43.571 24.813 43.571 24.493C43.571 24.173 43.831 23.9125 44.1515 23.9125Z" fill="black"/>
<path d="M8.56151 8.5775C8.56151 7.892 8.00401 7.3345 7.31901 7.3345C6.63401 7.3345 6.07651 7.892 6.07651 8.5775C6.07651 9.263 6.63401 9.8205 7.31901 9.8205C8.00401 9.8205 8.56151 9.2625 8.56151 8.5775ZM7.31901 9.4455C6.84051 9.4455 6.45151 9.056 6.45151 8.5775C6.45151 8.099 6.84051 7.7095 7.31901 7.7095C7.79751 7.7095 8.18651 8.099 8.18651 8.5775C8.18651 9.056 7.79751 9.4455 7.31901 9.4455Z" fill="black"/>
<path d="M10.8165 44.3175C10.98 44.359 11.1455 44.396 11.3135 44.4295L11.3865 44.062C11.2255 44.0295 11.0655 43.9935 10.908 43.954L10.8165 44.3175Z" fill="black"/>
<path d="M9.9845 43.6735C9.684 43.566 9.3845 43.4415 9.0935 43.304L8.9335 43.643C9.2355 43.786 9.547 43.915 9.859 44.027L9.9845 43.6735Z" fill="black"/>
<path d="M4.41851 38.616C4.28201 38.327 4.15801 38.0275 4.04951 37.7255L3.69701 37.852C3.80951 38.165 3.93751 38.4765 4.08001 38.776L4.41851 38.616Z" fill="black"/>
<path d="M8.24351 42.848C7.96901 42.683 7.69951 42.5025 7.44201 42.311L7.21851 42.612C7.48501 42.8105 7.76501 42.998 8.05001 43.1695L8.24351 42.848Z" fill="black"/>
<path d="M4.55099 39.659C4.72049 39.942 4.90749 40.222 5.10599 40.4915L5.40799 40.2685C5.21599 40.009 5.03599 39.7395 4.87349 39.4665L4.55099 39.659Z" fill="black"/>
<path d="M3.10001 34.4265C3.10001 34.592 3.10401 34.756 3.11151 34.919L3.48651 34.901C3.47901 34.7435 3.47501 34.585 3.47501 34.4265C3.47501 34.264 3.47901 34.1005 3.48701 33.937L3.11201 33.9185C3.10401 34.088 3.10001 34.2575 3.10001 34.4265Z" fill="black"/>
<path d="M5.74001 41.266C5.96251 41.5125 6.20051 41.751 6.44601 41.975L6.69901 41.6975C6.46201 41.482 6.23301 41.252 6.01851 41.0145L5.74001 41.266Z" fill="black"/>
<path d="M3.7685 36.804C3.691 36.4955 3.628 36.178 3.5805 35.859L3.2095 35.914C3.259 36.245 3.3245 36.575 3.4055 36.895L3.7685 36.804Z" fill="black"/>
<path d="M3.6685 32.4865L3.3005 32.4135C3.2675 32.5805 3.238 32.748 3.213 32.915L3.584 32.97C3.608 32.809 3.636 32.648 3.6685 32.4865Z" fill="black"/>
<path d="M44.7705 38.007L44.3955 37.999C44.392 38.1625 44.3835 38.325 44.3685 38.4855L44.7415 38.5195C44.7575 38.3505 44.767 38.1795 44.7705 38.007Z" fill="black"/>
<path d="M43.8435 40.5395L44.1875 40.6885C44.337 40.3445 44.459 39.9875 44.5515 39.6275L44.188 39.534C44.1 39.875 43.9845 40.213 43.8435 40.5395Z" fill="black"/>
<path d="M40.1065 44.128C39.7765 44.256 39.434 44.358 39.089 44.4315L39.167 44.798C39.5315 44.7205 39.8935 44.6125 40.242 44.477L40.1065 44.128Z" fill="black"/>
<path d="M42.702 42.324L42.9825 42.573C43.2315 42.293 43.459 41.992 43.6595 41.6785L43.343 41.4765C43.154 41.7735 42.938 42.0585 42.702 42.324Z" fill="black"/>
<path d="M42.173 43.35L41.9355 43.06C41.6615 43.2845 41.368 43.4885 41.063 43.6665L41.2525 43.99C41.574 43.802 41.8845 43.5865 42.173 43.35Z" fill="black"/>
<path d="M38.0515 44.9445L38.032 44.57C37.872 44.578 37.709 44.5805 37.5455 44.5775L37.5375 44.9525C37.5865 44.9535 37.6345 44.954 37.683 44.954C37.8065 44.954 37.929 44.951 38.0515 44.9445Z" fill="black"/>
<path d="M44.339 20.1885H43.964V21.1885H44.339V20.1885Z" fill="black"/>
<path d="M44.339 18.1885H43.964V19.1885H44.339V18.1885Z" fill="black"/>
<path d="M44.339 14.1885H43.964V15.1885H44.339V14.1885Z" fill="black"/>
<path d="M44.339 16.1885H43.964V17.1885H44.339V16.1885Z" fill="black"/>
</svg>
