<svg width="48" height="60" viewBox="0 0 48 60" fill="none" xmlns="http://www.w3.org/2000/svg">
<path d="M25.068 33.7795H31.7455V21.8175H37.486L27.6835 7.073L22.9315 14.221H16.254V26.183H10.514L20.316 40.9275L25.068 33.7795ZM16.254 26.9325H23.6225H23.9975H24.3725H24.3775H28.719L24.6665 33.029L24.417 33.404L24.168 33.779L20.3165 39.5725L11.9135 26.9325H16.254ZM17.004 14.9705H22.433L17.8815 21.817H23.622H23.627V26.182H23.622H17.004V14.9705ZM23.8325 14.2205L27.6835 8.427L36.087 21.067H31.7455H24.3775H24.0025H23.6275H23.6225H19.281L23.3335 14.9705L23.5825 14.5955L23.8325 14.2205ZM30.9955 33.0295H25.5665L30.1185 26.183H24.3775V21.818H30.9955V33.0295Z" fill="black"/>
<path d="M15.1575 44.226C15.1575 43.573 14.6265 43.0425 13.974 43.0425C13.3215 43.0425 12.7905 43.5735 12.7905 44.226C12.7905 44.8785 13.3215 45.4095 13.974 45.4095C14.6265 45.4095 15.1575 44.879 15.1575 44.226ZM13.1655 44.226C13.1655 43.78 13.5285 43.4175 13.974 43.4175C14.4195 43.4175 14.7825 43.7805 14.7825 44.226C14.7825 44.6715 14.4195 45.0345 13.974 45.0345C13.5285 45.0345 13.1655 44.672 13.1655 44.226Z" fill="black"/>
<path d="M3.042 17.0505L4.1155 16.486L5.1895 17.0505L4.985 15.854L5.853 15.0075L4.653 14.833L4.1155 13.7445L3.579 14.833L2.3775 15.0075L3.247 15.854L3.042 17.0505ZM3.184 15.269L3.828 15.1755L4.1155 14.592L4.404 15.1755L5.0475 15.269L4.5815 15.723L4.6915 16.3645L4.1155 16.062L3.54 16.3645L3.6505 15.723L3.184 15.269Z" fill="black"/>
<path d="M14.389 4.02549L14.005 3.24799L13.6215 4.02549L12.7645 4.14999L13.3845 4.75499L13.2385 5.60899L14.005 5.20599L14.7725 5.60849L14.6265 4.75499L15.2475 4.14999L14.389 4.02549ZM14.275 4.92399L14.0055 4.78249L13.737 4.92349L13.788 4.62399L13.5705 4.41149L13.8715 4.36799L14.006 4.09549L14.141 4.36799L14.442 4.41149L14.224 4.62399L14.275 4.92399Z" fill="black"/>
<path d="M42.1625 33.9695L42.7825 34.5745L42.6365 35.429L43.403 35.0255L44.1695 35.429L44.0235 34.5745L44.6435 33.9695L43.7865 33.8445L43.4025 33.0685L43.0185 33.8445L42.1625 33.9695ZM43.4035 33.9145L43.5385 34.1875L43.84 34.2315L43.622 34.444L43.673 34.744L43.404 34.6025L43.135 34.744L43.186 34.444L42.968 34.2315L43.2695 34.1875L43.4035 33.9145Z" fill="black"/>
<path d="M43.4035 6.845L42.907 8.3735H41.3005L42.6 9.3185L42.104 10.846L43.404 9.902L44.7035 10.846L44.2075 9.3185L45.507 8.3735H43.9005L43.4035 6.845ZM43.766 9.175L43.9895 9.8645L43.403 9.438L42.816 9.8645L43.0395 9.175L42.453 8.7485H43.1785L43.4025 8.059L43.626 8.7485H44.3515L43.766 9.175Z" fill="black"/>
<path d="M38.2415 3.73449C38.2415 4.38749 38.7725 4.91799 39.425 4.91799C40.0775 4.91799 40.6085 4.38699 40.6085 3.73449C40.6085 3.08199 40.0775 2.55099 39.425 2.55099C38.7725 2.55099 38.2415 3.08149 38.2415 3.73449ZM39.4255 2.92599C39.8715 2.92599 40.234 3.28899 40.234 3.73449C40.234 4.17999 39.871 4.54299 39.4255 4.54299C38.98 4.54299 38.617 4.17999 38.617 3.73449C38.617 3.28899 38.9795 2.92599 39.4255 2.92599Z" fill="black"/>
<path d="M43.216 24.473C43.216 25 43.6445 25.4285 44.1715 25.4285C44.6985 25.4285 45.127 25 45.127 24.473C45.127 23.946 44.6985 23.5175 44.1715 23.5175C43.6445 23.5175 43.216 23.9465 43.216 24.473ZM44.1715 23.8925C44.492 23.8925 44.752 24.153 44.752 24.473C44.752 24.793 44.4915 25.0535 44.1715 25.0535C43.8515 25.0535 43.591 24.793 43.591 24.473C43.591 24.153 43.851 23.8925 44.1715 23.8925Z" fill="black"/>
<path d="M7.339 7.31451C6.654 7.31451 6.0965 7.87201 6.0965 8.55701C6.0965 9.24251 6.654 9.80001 7.339 9.80001C8.024 9.80001 8.5815 9.24251 8.5815 8.55701C8.5815 7.87201 8.024 7.31451 7.339 7.31451ZM7.339 9.42551C6.8605 9.42551 6.4715 9.03601 6.4715 8.55751C6.4715 8.07901 6.8605 7.69001 7.339 7.69001C7.8175 7.69001 8.2065 8.07901 8.2065 8.55751C8.2065 9.03601 7.8175 9.42551 7.339 9.42551Z" fill="black"/>
<path d="M11.3335 44.41L11.4065 44.042C11.245 44.0105 11.085 43.9735 10.9275 43.934L10.8365 44.2985C11.0005 44.339 11.166 44.3765 11.3335 44.41Z" fill="black"/>
<path d="M8.95251 43.6225C9.25451 43.7655 9.56551 43.8945 9.87851 44.007L10.0045 43.6535C9.70351 43.546 9.40401 43.4215 9.11401 43.284L8.95251 43.6225Z" fill="black"/>
<path d="M3.12 34.4065C3.12 34.5715 3.124 34.7355 3.1315 34.8995L3.5065 34.881C3.4985 34.724 3.495 34.5655 3.495 34.4065C3.495 34.244 3.499 34.081 3.507 33.917L3.132 33.8985C3.124 34.068 3.12 34.238 3.12 34.4065Z" fill="black"/>
<path d="M3.78898 36.7835C3.71148 36.4755 3.64848 36.1575 3.60098 35.839L3.22998 35.894C3.27948 36.2245 3.34498 36.5545 3.42598 36.8755L3.78898 36.7835Z" fill="black"/>
<path d="M4.57098 39.6385C4.74098 39.9225 4.92798 40.203 5.12598 40.471L5.42798 40.2485C5.23648 39.9895 5.05698 39.72 4.89348 39.4465L4.57098 39.6385Z" fill="black"/>
<path d="M4.43849 38.596C4.30299 38.3085 4.17799 38.0085 4.06899 37.7055L3.71649 37.8325C3.82999 38.147 3.95849 38.458 4.09999 38.7565L4.43849 38.596Z" fill="black"/>
<path d="M8.26348 42.828C7.98698 42.662 7.71748 42.4815 7.46248 42.291L7.23798 42.592C7.50348 42.79 7.78348 42.9775 8.06998 43.1495L8.26348 42.828Z" fill="black"/>
<path d="M6.71901 41.6775C6.48151 41.461 6.25251 41.231 6.03851 40.9945L5.76001 41.2455C5.98251 41.492 6.22001 41.7305 6.46601 41.955L6.71901 41.6775Z" fill="black"/>
<path d="M3.68847 32.467L3.32047 32.394C3.28747 32.5615 3.25797 32.7285 3.23297 32.8955L3.60397 32.951C3.62797 32.7895 3.65647 32.6285 3.68847 32.467Z" fill="black"/>
<path d="M44.7905 37.987L44.4155 37.979C44.412 38.1425 44.4035 38.3045 44.3885 38.4655L44.7615 38.4995C44.7775 38.33 44.787 38.159 44.7905 37.987Z" fill="black"/>
<path d="M39.1865 44.7785C39.551 44.701 39.912 44.593 40.2615 44.4575L40.126 44.108C39.7955 44.236 39.453 44.338 39.1085 44.411L39.1865 44.7785Z" fill="black"/>
<path d="M43.8635 40.519L44.2075 40.6685C44.356 40.327 44.4785 39.97 44.5715 39.607L44.208 39.514C44.1195 39.8575 44.004 40.196 43.8635 40.519Z" fill="black"/>
<path d="M42.722 42.3035L43.0025 42.5525C43.251 42.273 43.479 41.9725 43.6795 41.6585L43.363 41.4565C43.1735 41.754 42.958 42.039 42.722 42.3035Z" fill="black"/>
<path d="M42.193 43.33L41.9555 43.04C41.6825 43.2635 41.389 43.4675 41.083 43.647L41.2725 43.97C41.5955 43.7815 41.9055 43.566 42.193 43.33Z" fill="black"/>
<path d="M37.7065 44.934C37.829 44.934 37.9505 44.931 38.071 44.924L38.0515 44.55C37.891 44.5585 37.7285 44.5605 37.565 44.5575L37.557 44.9325C37.6075 44.9335 37.6565 44.934 37.7065 44.934Z" fill="black"/>
<path d="M44.359 16.1685H43.984V17.1685H44.359V16.1685Z" fill="black"/>
<path d="M44.359 14.1685H43.984V15.1685H44.359V14.1685Z" fill="black"/>
<path d="M44.359 20.1685H43.984V21.1685H44.359V20.1685Z" fill="black"/>
<path d="M44.359 18.1685H43.984V19.1685H44.359V18.1685Z" fill="black"/>
</svg>
