<svg width="86" height="119" viewBox="0 0 86 119" fill="none" xmlns="http://www.w3.org/2000/svg">
<path d="M28.0594 37.6558C28.073 32.6853 32.1134 28.6669 37.0839 28.6804L63.8264 28.7533C71.8376 28.7751 75.8298 38.466 70.1586 44.1244L43.3431 70.8795C37.6621 76.5477 27.9645 72.5089 27.9863 64.4838L28.0594 37.6558Z" fill="#DC667D"/>
<path d="M28.0594 63.6558C28.073 58.6853 32.1134 54.6669 37.0839 54.6804L63.8264 54.7533C71.8376 54.7751 75.8298 64.466 70.1586 70.1244L43.3431 96.8795C37.6621 102.548 27.9645 98.5089 27.9863 90.4838L28.0594 63.6558Z" fill="#71BAF3"/>
<mask id="mask0_23_352" style="mask-type:alpha" maskUnits="userSpaceOnUse" x="27" y="28" width="46" height="46">
<path d="M28.0594 37.6558C28.073 32.6853 32.1134 28.6669 37.0839 28.6804L63.8264 28.7533C71.8376 28.7751 75.8298 38.466 70.1586 44.1244L43.3431 70.8795C37.6621 76.5477 27.9645 72.5089 27.9863 64.4838L28.0594 37.6558Z" fill="#DC667D"/>
</mask>
<g mask="url(#mask0_23_352)">
<path d="M28.0594 63.6558C28.073 58.6853 32.1134 54.6669 37.0839 54.6804L63.8264 54.7533C71.8376 54.7751 75.8298 64.466 70.1586 70.1244L43.3431 96.8795C37.6621 102.548 27.9645 98.5089 27.9863 90.4838L28.0594 63.6558Z" fill="#5A5CB0"/>
</g>
</svg>
